<mxfile host="app.diagrams.net" modified="2024-05-08T22:47:01.342Z" agent="Mozilla/5.0 (iPad; CPU OS 17_3 like Mac OS X) AppleWebKit/605.1.15 (KHTML, like Gecko) CriOS/125.0.6422.33 Mobile/15E148 Safari/604.1" etag="Y8vB9D-uOQ-H_o1sOQyx" version="24.3.1" type="github" pages="2">
  <diagram name="Page-1" id="03018318-947c-dd8e-b7a3-06fadd420f32">
    <mxGraphModel dx="1339" dy="712" grid="1" gridSize="10" guides="1" tooltips="1" connect="1" arrows="1" fold="1" page="1" pageScale="1" pageWidth="1100" pageHeight="850" background="#ffffff" math="0" shadow="0">
      <root>
        <mxCell id="0" />
        <mxCell id="1" parent="0" />
        <mxCell id="677b7b8949515195-1" value="" style="whiteSpace=wrap;html=1;rounded=0;shadow=0;labelBackgroundColor=none;strokeColor=#000000;strokeWidth=1;fillColor=none;fontFamily=Verdana;fontSize=12;fontColor=#000000;align=center;comic=1;" parent="1" vertex="1">
          <mxGeometry x="20" y="25" width="1060" height="1105" as="geometry" />
        </mxCell>
        <mxCell id="677b7b8949515195-2" value="LOGO" style="whiteSpace=wrap;html=1;rounded=0;shadow=0;labelBackgroundColor=none;strokeColor=#000000;strokeWidth=1;fillColor=#ffffff;fontFamily=Verdana;fontSize=28;fontColor=#000000;align=center;comic=1;" parent="1" vertex="1">
          <mxGeometry x="40" y="60" width="190" height="50" as="geometry" />
        </mxCell>
        <mxCell id="677b7b8949515195-3" value="Search" style="strokeWidth=1;shadow=0;dashed=0;align=center;html=1;shape=mxgraph.mockup.forms.searchBox;strokeColor=#999999;mainText=;fillColor=#ffffff;strokeColor2=#008cff;fontColor=#666666;fontSize=17;align=left;spacingLeft=3;rounded=0;labelBackgroundColor=none;comic=1;" parent="1" vertex="1">
          <mxGeometry x="840" y="95" width="220" height="30" as="geometry" />
        </mxCell>
        <mxCell id="677b7b8949515195-7" value="Welcome &amp;lt;citizen name&amp;gt;" style="text;html=1;points=[];align=left;verticalAlign=top;spacingTop=-4;fontSize=14;fontFamily=Verdana;fontColor=#000000;" parent="1" vertex="1">
          <mxGeometry x="880" y="40" width="60" height="20" as="geometry" />
        </mxCell>
        <mxCell id="677b7b8949515195-8" value="" style="whiteSpace=wrap;html=1;rounded=0;shadow=0;labelBackgroundColor=none;strokeColor=#000000;strokeWidth=1;fillColor=none;fontFamily=Verdana;fontSize=12;fontColor=#000000;align=center;comic=1;" parent="1" vertex="1">
          <mxGeometry x="30" y="230" width="200" height="590" as="geometry" />
        </mxCell>
        <mxCell id="677b7b8949515195-9" value="" style="line;strokeWidth=1;html=1;rounded=0;shadow=0;labelBackgroundColor=none;fillColor=none;fontFamily=Verdana;fontSize=14;fontColor=#000000;align=center;comic=1;" parent="1" vertex="1">
          <mxGeometry x="20" y="140" width="1060" height="10" as="geometry" />
        </mxCell>
        <mxCell id="677b7b8949515195-10" value="" style="whiteSpace=wrap;html=1;rounded=0;shadow=0;labelBackgroundColor=none;strokeColor=#000000;strokeWidth=1;fillColor=none;fontFamily=Verdana;fontSize=12;fontColor=#000000;align=center;comic=1;" parent="1" vertex="1">
          <mxGeometry x="30" y="160" width="1040" height="50" as="geometry" />
        </mxCell>
        <mxCell id="677b7b8949515195-11" value="My Profile" style="text;html=1;points=[];align=left;verticalAlign=top;spacingTop=-4;fontSize=14;fontFamily=Verdana;fontColor=#000000;" parent="1" vertex="1">
          <mxGeometry x="50" y="175" width="60" height="20" as="geometry" />
        </mxCell>
        <mxCell id="677b7b8949515195-12" value="My Org" style="text;html=1;points=[];align=left;verticalAlign=top;spacingTop=-4;fontSize=14;fontFamily=Verdana;fontColor=#000000;" parent="1" vertex="1">
          <mxGeometry x="135" y="175" width="60" height="20" as="geometry" />
        </mxCell>
        <mxCell id="677b7b8949515195-13" value="My Home" style="text;html=1;points=[];align=left;verticalAlign=top;spacingTop=-4;fontSize=14;fontFamily=Verdana;fontColor=#000000;" parent="1" vertex="1">
          <mxGeometry x="210" y="175" width="60" height="20" as="geometry" />
        </mxCell>
        <mxCell id="677b7b8949515195-14" value="Tools" style="text;html=1;points=[];align=left;verticalAlign=top;spacingTop=-4;fontSize=14;fontFamily=Verdana;fontColor=#000000;" parent="1" vertex="1">
          <mxGeometry x="1000" y="175" width="60" height="20" as="geometry" />
        </mxCell>
        <mxCell id="677b7b8949515195-15" value="&lt;div style=&quot;text-align: justify&quot;&gt;&lt;span&gt;Lorem ipsum dolor sit amet, consectetur adipisicing elit, sed do eiusmod tempor incididunt ut labore et dolore magna aliqua. Ut enim ad minim veniam, quis nostrud exercitation ullamco laboris nisi ut aliquip ex ea commodo consequat. Duis aute irure dolor in reprehenderit in voluptate velit esse cillum dolore eu fugiat nulla pariatur. Excepteur sint occaecat cupidatat non proident, sunt in culpa qui officia deserunt mollit anim id est laborum.&lt;/span&gt;&lt;/div&gt;&lt;div style=&quot;text-align: justify&quot;&gt;&lt;span&gt;Sed ut perspiciatis unde omnis iste natus error sit voluptatem accusantium doloremque laudantium, totam rem aperiam, eaque ipsa quae ab illo inventore veritatis et quasi architecto beatae vitae dicta sunt explicabo. Nemo enim ipsam voluptatem quia voluptas sit aspernatur aut odit aut fugit, sed quia consequuntur magni dolores eos qui ratione voluptatem sequi nesciunt.&amp;nbsp;&lt;/span&gt;&lt;/div&gt;" style="whiteSpace=wrap;html=1;rounded=0;shadow=0;labelBackgroundColor=none;strokeColor=#000000;strokeWidth=1;fillColor=none;fontFamily=Verdana;fontSize=12;fontColor=#000000;align=center;verticalAlign=top;spacing=10;comic=1;" parent="1" vertex="1">
          <mxGeometry x="250" y="426" width="570" height="180" as="geometry" />
        </mxCell>
        <mxCell id="677b7b8949515195-25" value="" style="whiteSpace=wrap;html=1;rounded=0;shadow=0;labelBackgroundColor=none;strokeColor=#000000;strokeWidth=1;fillColor=none;fontFamily=Verdana;fontSize=12;fontColor=#000000;align=center;comic=1;" parent="1" vertex="1">
          <mxGeometry x="840" y="230" width="230" height="320" as="geometry" />
        </mxCell>
        <mxCell id="677b7b8949515195-26" value="" style="whiteSpace=wrap;html=1;rounded=0;shadow=0;labelBackgroundColor=none;strokeColor=#000000;strokeWidth=1;fillColor=none;fontFamily=Verdana;fontSize=12;fontColor=#000000;align=center;comic=1;glass=0;" parent="1" vertex="1">
          <mxGeometry x="840" y="570" width="230" height="250" as="geometry" />
        </mxCell>
        <mxCell id="677b7b8949515195-27" value="Citizen Record" style="text;html=1;points=[];align=left;verticalAlign=top;spacingTop=-4;fontSize=14;fontFamily=Verdana;fontColor=#000000;" parent="1" vertex="1">
          <mxGeometry x="40" y="250" width="170" height="20" as="geometry" />
        </mxCell>
        <mxCell id="677b7b8949515195-28" value="Bio" style="text;html=1;points=[];align=left;verticalAlign=top;spacingTop=-4;fontSize=14;fontFamily=Verdana;fontColor=#000000;" parent="1" vertex="1">
          <mxGeometry x="40" y="286" width="170" height="20" as="geometry" />
        </mxCell>
        <mxCell id="677b7b8949515195-29" value="Fleet" style="text;html=1;points=[];align=left;verticalAlign=top;spacingTop=-4;fontSize=14;fontFamily=Verdana;fontColor=#000000;" parent="1" vertex="1">
          <mxGeometry x="40" y="321" width="170" height="20" as="geometry" />
        </mxCell>
        <mxCell id="677b7b8949515195-30" value="Discoveries" style="text;html=1;points=[];align=left;verticalAlign=top;spacingTop=-4;fontSize=14;fontFamily=Verdana;fontColor=#000000;" parent="1" vertex="1">
          <mxGeometry x="40" y="357" width="170" height="20" as="geometry" />
        </mxCell>
        <mxCell id="677b7b8949515195-31" value="Section 7" style="text;html=1;points=[];align=left;verticalAlign=top;spacingTop=-4;fontSize=14;fontFamily=Verdana;fontColor=#000000;" parent="1" vertex="1">
          <mxGeometry x="40" y="464" width="170" height="20" as="geometry" />
        </mxCell>
        <mxCell id="677b7b8949515195-39" value="Section 5" style="text;html=1;points=[];align=left;verticalAlign=top;spacingTop=-4;fontSize=14;fontFamily=Verdana;fontColor=#000000;" parent="1" vertex="1">
          <mxGeometry x="40" y="393" width="170" height="20" as="geometry" />
        </mxCell>
        <mxCell id="677b7b8949515195-40" value="Section 6" style="text;html=1;points=[];align=left;verticalAlign=top;spacingTop=-4;fontSize=14;fontFamily=Verdana;fontColor=#000000;" parent="1" vertex="1">
          <mxGeometry x="40" y="429" width="170" height="20" as="geometry" />
        </mxCell>
        <mxCell id="677b7b8949515195-42" value="External Links" style="text;html=1;points=[];align=left;verticalAlign=top;spacingTop=-4;fontSize=14;fontFamily=Verdana;fontColor=#000000;" parent="1" vertex="1">
          <mxGeometry x="855" y="581" width="170" height="20" as="geometry" />
        </mxCell>
        <mxCell id="-UWu3EK0LhLVIEwH7Tlu-1" value="UEE Citizen Record: #&lt;font color=&quot;#0000ff&quot;&gt;&lt;u&gt;84348&lt;/u&gt;&lt;/font&gt;" style="text;html=1;points=[];align=left;verticalAlign=top;spacingTop=-4;fontSize=14;fontFamily=Verdana;fontColor=#000000;" parent="1" vertex="1">
          <mxGeometry x="440" y="230" width="170" height="20" as="geometry" />
        </mxCell>
        <mxCell id="-UWu3EK0LhLVIEwH7Tlu-2" value="Name: Flint McBane" style="text;html=1;points=[];align=left;verticalAlign=top;spacingTop=-4;fontSize=14;fontFamily=Verdana;fontColor=#000000;" parent="1" vertex="1">
          <mxGeometry x="440" y="259" width="170" height="20" as="geometry" />
        </mxCell>
        <mxCell id="-UWu3EK0LhLVIEwH7Tlu-3" value="Handle: Capn_Flint" style="text;html=1;points=[];align=left;verticalAlign=top;spacingTop=-4;fontSize=14;fontFamily=Verdana;fontColor=#000000;" parent="1" vertex="1">
          <mxGeometry x="440" y="279" width="170" height="20" as="geometry" />
        </mxCell>
        <mxCell id="-UWu3EK0LhLVIEwH7Tlu-4" value="&lt;u&gt;&lt;font color=&quot;#0000ff&quot;&gt;McBane Enterprises&lt;/font&gt;&lt;/u&gt;" style="text;html=1;points=[];align=left;verticalAlign=top;spacingTop=-4;fontSize=14;fontFamily=Verdana;fontColor=#000000;" parent="1" vertex="1">
          <mxGeometry x="870" y="454" width="170" height="20" as="geometry" />
        </mxCell>
        <mxCell id="-UWu3EK0LhLVIEwH7Tlu-5" value="Title: Director" style="text;html=1;points=[];align=left;verticalAlign=top;spacingTop=-4;fontSize=14;fontFamily=Verdana;fontColor=#000000;" parent="1" vertex="1">
          <mxGeometry x="870" y="480" width="170" height="20" as="geometry" />
        </mxCell>
        <mxCell id="-UWu3EK0LhLVIEwH7Tlu-6" value="System:&amp;nbsp; &amp;nbsp;&lt;u&gt;&lt;font color=&quot;#0000ff&quot;&gt;Stanton&lt;/font&gt;&lt;/u&gt;" style="text;html=1;points=[];align=left;verticalAlign=top;spacingTop=-4;fontSize=14;fontFamily=Verdana;fontColor=#000000;" parent="1" vertex="1">
          <mxGeometry x="455" y="329" width="170" height="20" as="geometry" />
        </mxCell>
        <mxCell id="-UWu3EK0LhLVIEwH7Tlu-7" value="Planet:&amp;nbsp; &amp;nbsp; &amp;nbsp;&lt;font color=&quot;#0000ff&quot;&gt;&lt;u&gt;Hurston&lt;/u&gt;&lt;/font&gt;" style="text;html=1;points=[];align=left;verticalAlign=top;spacingTop=-4;fontSize=14;fontFamily=Verdana;fontColor=#000000;" parent="1" vertex="1">
          <mxGeometry x="455" y="349" width="170" height="20" as="geometry" />
        </mxCell>
        <mxCell id="-UWu3EK0LhLVIEwH7Tlu-8" value="City:&amp;nbsp; &amp;nbsp; &amp;nbsp; &amp;nbsp; &amp;nbsp;&lt;font color=&quot;#0000ff&quot;&gt;&lt;u&gt;Lorville&lt;/u&gt;&lt;/font&gt;" style="text;html=1;points=[];align=left;verticalAlign=top;spacingTop=-4;fontSize=14;fontFamily=Verdana;fontColor=#000000;" parent="1" vertex="1">
          <mxGeometry x="455" y="370" width="170" height="20" as="geometry" />
        </mxCell>
        <mxCell id="-UWu3EK0LhLVIEwH7Tlu-11" value="Bio" style="text;html=1;points=[];align=left;verticalAlign=top;spacingTop=-4;fontSize=14;fontFamily=Verdana;fontColor=#000000;" parent="1" vertex="1">
          <mxGeometry x="250" y="403" width="170" height="20" as="geometry" />
        </mxCell>
        <mxCell id="-UWu3EK0LhLVIEwH7Tlu-12" value="Employer" style="text;html=1;points=[];align=left;verticalAlign=top;spacingTop=-4;fontSize=14;fontFamily=Verdana;fontColor=#000000;" parent="1" vertex="1">
          <mxGeometry x="850" y="240" width="170" height="20" as="geometry" />
        </mxCell>
        <mxCell id="-UWu3EK0LhLVIEwH7Tlu-13" value="" style="verticalLabelPosition=bottom;shadow=0;dashed=0;align=center;html=1;verticalAlign=top;strokeWidth=1;shape=mxgraph.mockup.graphics.simpleIcon;strokeColor=#999999;fillColor=#ffffff;rounded=0;labelBackgroundColor=none;fontFamily=Verdana;fontSize=14;fontColor=#000000;comic=1;" parent="1" vertex="1">
          <mxGeometry x="875" y="269" width="160" height="160" as="geometry" />
        </mxCell>
        <mxCell id="-UWu3EK0LhLVIEwH7Tlu-17" value="" style="verticalLabelPosition=bottom;shadow=0;dashed=0;align=center;html=1;verticalAlign=top;strokeWidth=1;shape=mxgraph.mockup.containers.userMale;strokeColor=#666666;strokeColor2=#008cff;fillColor=#ffffff;" parent="1" vertex="1">
          <mxGeometry x="250" y="230" width="160" height="160" as="geometry" />
        </mxCell>
        <mxCell id="-UWu3EK0LhLVIEwH7Tlu-18" value="Fleet" style="text;html=1;points=[];align=left;verticalAlign=top;spacingTop=-4;fontSize=14;fontFamily=Verdana;fontColor=#000000;" parent="1" vertex="1">
          <mxGeometry x="250" y="619" width="170" height="20" as="geometry" />
        </mxCell>
        <mxCell id="-UWu3EK0LhLVIEwH7Tlu-20" value="" style="verticalLabelPosition=bottom;shadow=0;dashed=0;align=center;html=1;verticalAlign=top;strokeWidth=1;shape=mxgraph.mockup.graphics.simpleIcon;strokeColor=#999999;fillColor=#ffffff;rounded=0;glass=0;comic=1;" parent="1" vertex="1">
          <mxGeometry x="270" y="649" width="120" height="70" as="geometry" />
        </mxCell>
        <mxCell id="-UWu3EK0LhLVIEwH7Tlu-23" value="" style="verticalLabelPosition=bottom;shadow=0;dashed=0;align=center;html=1;verticalAlign=top;strokeWidth=1;shape=mxgraph.mockup.graphics.simpleIcon;strokeColor=#999999;fillColor=#ffffff;rounded=0;glass=0;comic=1;" parent="1" vertex="1">
          <mxGeometry x="270" y="739" width="120" height="70" as="geometry" />
        </mxCell>
        <mxCell id="-UWu3EK0LhLVIEwH7Tlu-35" value="Ship: RSI Constellation" style="text;html=1;points=[];align=left;verticalAlign=top;spacingTop=-4;fontSize=14;fontFamily=Verdana;fontColor=#000000;" parent="1" vertex="1">
          <mxGeometry x="400" y="646.5" width="170" height="20" as="geometry" />
        </mxCell>
        <mxCell id="-UWu3EK0LhLVIEwH7Tlu-36" value="Model: Aquila" style="text;html=1;points=[];align=left;verticalAlign=top;spacingTop=-4;fontSize=14;fontFamily=Verdana;fontColor=#000000;" parent="1" vertex="1">
          <mxGeometry x="400" y="670" width="170" height="20" as="geometry" />
        </mxCell>
        <mxCell id="-UWu3EK0LhLVIEwH7Tlu-37" value="Name: Serenity" style="text;html=1;points=[];align=left;verticalAlign=top;spacingTop=-4;fontSize=14;fontFamily=Verdana;fontColor=#000000;" parent="1" vertex="1">
          <mxGeometry x="400" y="693" width="170" height="20" as="geometry" />
        </mxCell>
        <mxCell id="-UWu3EK0LhLVIEwH7Tlu-40" value="Ship: RSI Aurora" style="text;html=1;points=[];align=left;verticalAlign=top;spacingTop=-4;fontSize=14;fontFamily=Verdana;fontColor=#000000;" parent="1" vertex="1">
          <mxGeometry x="400" y="739" width="170" height="20" as="geometry" />
        </mxCell>
        <mxCell id="-UWu3EK0LhLVIEwH7Tlu-41" value="Model: MR" style="text;html=1;points=[];align=left;verticalAlign=top;spacingTop=-4;fontSize=14;fontFamily=Verdana;fontColor=#000000;" parent="1" vertex="1">
          <mxGeometry x="400" y="762.5" width="170" height="20" as="geometry" />
        </mxCell>
        <mxCell id="-UWu3EK0LhLVIEwH7Tlu-42" value="Name: Hope" style="text;html=1;points=[];align=left;verticalAlign=top;spacingTop=-4;fontSize=14;fontFamily=Verdana;fontColor=#000000;" parent="1" vertex="1">
          <mxGeometry x="400" y="785.5" width="170" height="20" as="geometry" />
        </mxCell>
        <mxCell id="-UWu3EK0LhLVIEwH7Tlu-46" value="Home" style="text;html=1;points=[];align=left;verticalAlign=top;spacingTop=-4;fontSize=14;fontFamily=Verdana;fontColor=#000000;" parent="1" vertex="1">
          <mxGeometry x="440" y="307" width="170" height="20" as="geometry" />
        </mxCell>
        <mxCell id="-UWu3EK0LhLVIEwH7Tlu-47" value="Web: Link" style="text;html=1;points=[];align=left;verticalAlign=top;spacingTop=-4;fontSize=14;fontFamily=Verdana;fontColor=#000000;" parent="1" vertex="1">
          <mxGeometry x="855" y="617" width="170" height="20" as="geometry" />
        </mxCell>
        <mxCell id="-UWu3EK0LhLVIEwH7Tlu-48" value="Twitter: @Capn_Flint" style="text;html=1;points=[];align=left;verticalAlign=top;spacingTop=-4;fontSize=14;fontFamily=Verdana;fontColor=#000000;" parent="1" vertex="1">
          <mxGeometry x="855" y="643" width="170" height="20" as="geometry" />
        </mxCell>
        <mxCell id="-UWu3EK0LhLVIEwH7Tlu-49" value="Discoveries" style="text;html=1;points=[];align=left;verticalAlign=top;spacingTop=-4;fontSize=14;fontFamily=Verdana;fontColor=#000000;" parent="1" vertex="1">
          <mxGeometry x="250" y="830" width="170" height="20" as="geometry" />
        </mxCell>
        <mxCell id="-UWu3EK0LhLVIEwH7Tlu-50" value="" style="verticalLabelPosition=bottom;shadow=0;dashed=0;align=center;html=1;verticalAlign=top;strokeWidth=1;shape=mxgraph.mockup.graphics.simpleIcon;strokeColor=#999999;fillColor=#ffffff;rounded=0;glass=0;comic=1;" parent="1" vertex="1">
          <mxGeometry x="270" y="860" width="120" height="70" as="geometry" />
        </mxCell>
        <mxCell id="-UWu3EK0LhLVIEwH7Tlu-51" value="" style="verticalLabelPosition=bottom;shadow=0;dashed=0;align=center;html=1;verticalAlign=top;strokeWidth=1;shape=mxgraph.mockup.graphics.simpleIcon;strokeColor=#999999;fillColor=#ffffff;rounded=0;glass=0;comic=1;" parent="1" vertex="1">
          <mxGeometry x="270" y="950" width="120" height="70" as="geometry" />
        </mxCell>
        <mxCell id="-UWu3EK0LhLVIEwH7Tlu-52" value="Location: Daymar" style="text;html=1;points=[];align=left;verticalAlign=top;spacingTop=-4;fontSize=14;fontFamily=Verdana;fontColor=#000000;" parent="1" vertex="1">
          <mxGeometry x="400" y="857.5" width="170" height="20" as="geometry" />
        </mxCell>
        <mxCell id="-UWu3EK0LhLVIEwH7Tlu-53" value="Type: Abandoned Mine" style="text;html=1;points=[];align=left;verticalAlign=top;spacingTop=-4;fontSize=14;fontFamily=Verdana;fontColor=#000000;" parent="1" vertex="1">
          <mxGeometry x="400" y="881" width="170" height="20" as="geometry" />
        </mxCell>
        <mxCell id="-UWu3EK0LhLVIEwH7Tlu-54" value="Discovered: 10-10-2149" style="text;html=1;points=[];align=left;verticalAlign=top;spacingTop=-4;fontSize=14;fontFamily=Verdana;fontColor=#000000;" parent="1" vertex="1">
          <mxGeometry x="400" y="904" width="170" height="20" as="geometry" />
        </mxCell>
        <mxCell id="-UWu3EK0LhLVIEwH7Tlu-55" value="Location: Daymar" style="text;html=1;points=[];align=left;verticalAlign=top;spacingTop=-4;fontSize=14;fontFamily=Verdana;fontColor=#000000;" parent="1" vertex="1">
          <mxGeometry x="400" y="950" width="170" height="20" as="geometry" />
        </mxCell>
        <mxCell id="-UWu3EK0LhLVIEwH7Tlu-56" value="Type: Drug Lab" style="text;html=1;points=[];align=left;verticalAlign=top;spacingTop=-4;fontSize=14;fontFamily=Verdana;fontColor=#000000;" parent="1" vertex="1">
          <mxGeometry x="400" y="973.5" width="170" height="20" as="geometry" />
        </mxCell>
        <mxCell id="-UWu3EK0LhLVIEwH7Tlu-57" value="Discovered: 09-10-2149" style="text;html=1;points=[];align=left;verticalAlign=top;spacingTop=-4;fontSize=14;fontFamily=Verdana;fontColor=#000000;" parent="1" vertex="1">
          <mxGeometry x="400" y="996.5" width="170" height="20" as="geometry" />
        </mxCell>
      </root>
    </mxGraphModel>
  </diagram>
  <diagram id="pgMaS7jlEyReW_TeM8ld" name="Page-2">
    <mxGraphModel dx="1339" dy="712" grid="0" gridSize="10" guides="1" tooltips="1" connect="1" arrows="1" fold="1" page="0" pageScale="1" pageWidth="850" pageHeight="1100" math="0" shadow="0">
      <root>
        <mxCell id="0" />
        <mxCell id="1" parent="0" />
      </root>
    </mxGraphModel>
  </diagram>
</mxfile>
